<svg xmlns="http://www.w3.org/2000/svg" width="40" height="41" viewBox="0 0 40 41">
  <g fill="none">
    <path fill="#FFF" d="M19.9940299,40.9821308 C13.4390379,40.9821722 7.55106101,36.9820136 5.14925373,30.8969249 C4.85074627,30.14046 4.52238806,29.3571913 4.34527363,28.5510896 L4.16616915,27.2803874 C2.62487562,26.6569492 1.53930348,25.2015981 1.16915423,23.7601453 C0.719402985,22.0049879 0.168159204,19.4208959 0.0995024876,17.0750605 C0.0467661692,15.2116949 1.13233831,13.4615012 2.80298507,12.7199274 C3.9641791,12.2037046 5.52437811,11.7718644 7.45273632,11.4293705 C8.64676617,8.79266344 10.0338308,6.49050847 11.5004975,4.71549637 C14.0895522,1.58837772 16.9462687,0 19.9940299,0 C23.041791,0 25.8975124,1.58837772 28.4845771,4.71748184 C29.9373134,6.4746247 31.3124378,8.752954 32.5004975,11.3638499 C34.4288557,11.6924455 36.0039801,12.1252785 37.1960199,12.6544068 C38.8884011,13.4009536 39.9580549,15.0967623 39.9004975,16.9420339 C39.8228856,19.6472397 39.1283582,22.6115496 38.8328358,23.7601453 C38.4606965,25.2125182 37.361194,26.6797821 35.8049751,27.2942857 L35.6218905,28.5500969 C35.4447761,29.3532203 35.1363184,30.1384746 34.839801,30.8909685 C32.4425072,36.9809148 26.5519004,40.9849553 19.9940299,40.9821308 L19.9940299,40.9821308 Z"/>
    <path fill="#FCFBFA" d="M19.8905473,2.99210654 C26.9651741,2.99210654 32.6955224,18.1571429 32.6955224,25.2154964 C32.6955225,29.7799276 30.2548132,33.9976361 26.2927861,36.2798518 C22.3307591,38.5620674 17.4493404,38.5620674 13.4873134,36.2798518 C9.52528633,33.9976361 7.08457705,29.7799276 7.08457711,25.2154964 C7.08457711,18.1571429 12.8179104,2.99210654 19.8905473,2.99210654 Z"/>
    <path fill="#252526" d="M36.1273632 15.2315496L30.9034826 17.0700969C30.9034826 17.0700969 31.7124378 19.5231477 31.719403 19.5400242 31.7263682 19.5569007 36.9223881 18.8719128 36.9223881 18.8719128L36.1273632 15.2315496zM3.65273632 15.2315496L8.87661692 17.0700969C8.87661692 17.0700969 8.06766169 19.5231477 8.06069652 19.5400242 8.05373134 19.5569007 2.85771144 18.8719128 2.85771144 18.8719128L3.65273632 15.2315496z"/>
    <path fill="#E0E0E0" d="M14.5144279 14.797724C15.8268657 14.8175787 16.1134328 15.9066102 16.161194 16.1657143 16.3266224 17.0534046 16.4356292 17.9506424 16.4875622 18.8520581 16.4923695 19.1043126 16.4693454 19.356329 16.4189055 19.6035593 16.3532338 18.9543099 16.2606965 18.3348426 16.161194 17.7977724 16.1134328 17.539661 15.8268657 16.4496368 14.5144279 16.4297821 13.718408 16.4178692 11.1761194 16.509201 8.64378109 16.8745278 8.82686567 16.3046973 9.02487562 15.7318886 9.24079602 15.1610654 10.9898633 14.9353909 12.7508711 14.8140614 14.5144279 14.797724L14.5144279 14.797724zM32.6706468 24.6476513C28.0587065 24.4103874 24.119403 22.9441162 23.2298507 22.4110169 22.5333333 22.0794431 21.6527363 21.3795642 21.39801 19.6313559 21.2278607 21.5622276 21.5970149 23.3223487 23.4099502 24.1909927 23.5442786 24.2714044 27.0238806 25.9898305 32.6378109 26.2836804 32.6666667 25.9322518 32.6825871 25.577845 32.6825871 25.2184746 32.6835821 25.0308475 32.678607 24.8412349 32.6706468 24.6476513zM7.12238806 24.6476513C11.7343284 24.4103874 15.6736318 22.9441162 16.5631841 22.4110169 17.2597015 22.0794431 18.1402985 21.3795642 18.3950249 19.6313559 18.5651741 21.5622276 18.1960199 23.3223487 16.3830846 24.1909927 16.2487562 24.2714044 12.7691542 25.9898305 7.15522388 26.2836804 7.12636816 25.9322518 7.11044776 25.577845 7.11044776 25.2184746 7.10945274 25.0308475 7.11442786 24.8412349 7.12238806 24.6476513zM25.2517413 14.797724C23.9393035 14.8175787 23.6527363 15.9066102 23.6049751 16.1657143 23.4412575 17.0531836 23.3339126 17.9500878 23.2835821 18.8510654 23.2787748 19.1033198 23.3017989 19.3553363 23.3522388 19.6025666 23.4179104 18.9533172 23.5104478 18.3338499 23.6099502 17.7967797 23.6577114 17.5386683 23.9442786 16.4486441 25.2567164 16.4287893 26.0527363 16.4168765 28.5950249 16.5082082 31.1273632 16.8735351 30.9442786 16.3037046 30.7462687 15.7308959 30.5303483 15.1600726 28.7796139 14.9345331 27.0169389 14.8135347 25.2517413 14.797724L25.2517413 14.797724z"/>
    <path fill="#56555C" d="M8.68855721 13.4148426C9.95024876 10.3711138 11.4547264 7.7433414 13.0537313 5.80552058 15.2238806 3.17675545 17.5263682 1.8435109 19.8905473 1.8435109 22.2547264 1.8435109 24.5532338 3.17576271 26.7263682 5.80452785 28.3273632 7.74135593 29.8368159 10.3711138 31.0915423 13.4148426L31.1532338 13.5627603 30.9940299 13.5419128C30.5512438 13.4833414 30.1890547 13.4426392 29.7472637 13.3930024L29.6935323 13.387046 29.6716418 13.3374092C28.2587065 10.0425182 25.841791 5.74 22.721393 3.94116223 21.7781095 3.39714286 20.8248756 3.12116223 19.8905473 3.12116223 18.9562189 3.12116223 18 3.39714286 17.0597015 3.94116223 13.9442786 5.73702179 11.5353234 10.0246489 10.1104478 13.3374092L10.0885572 13.387046 10.0348259 13.3930024C9.59104478 13.4406538 9.22885572 13.4833414 8.7880597 13.5419128L8.62885572 13.5627603 8.68855721 13.4148426zM32.8179104 23.0562954C32.4716418 23.0473608 32.121393 23.0334625 31.7751244 23.0136077L31.6676617 23.0076513 31.6537313 22.9014286C31.3462687 20.4791525 30.6437811 17.6399274 29.6766169 14.917845L29.6059701 14.7192978 29.8159204 14.7470944C30.2139303 14.8007022 30.6 14.8582809 30.9681592 14.9208232L31.0437811 14.9337288 31.0686567 15.0061985C31.9970149 17.7272881 32.6606965 20.5347458 32.9482587 22.9123487L32.9661692 23.0602663 32.8179104 23.0562954z"/>
    <path fill="#252526" d="M31.6756219,16.919201 C31.4885572,16.2808717 31.2865672,15.6415496 31.0696517,15.0061985 L31.0447761,14.9337288 L30.9691542,14.9208232 C30.600995,14.8582809 30.2129353,14.8007022 29.8169154,14.7470944 L29.6069652,14.7192978 L29.6776119,14.917845 C29.8925373,15.5224213 30.0925373,16.1319613 30.279602,16.7415012 C30.9512438,16.8169492 31.3313433,16.8705569 31.6756219,16.919201 Z"/>
    <path fill="#56555C" d="M6.91741294,22.8567554 C7.20099502,20.4741889 7.86865672,17.6707022 8.79701493,14.9506053 L8.82189055,14.8781356 L8.89751244,14.86523 C9.26567164,14.8036804 9.65273632,14.745109 10.0497512,14.6915012 L10.2597015,14.6637046 L10.1890547,14.8622518 C9.22089552,17.5873123 8.51940299,20.4215738 8.2119403,22.8458354 L8.19800995,22.9520581 L8.09054726,22.9580145 C7.74427861,22.9778692 7.39402985,22.9917676 7.04875622,23.0007022 L6.89950249,23.0007022 L6.91741294,22.8567554 Z"/>
    <path fill="#252526" d="M8.89850746,14.8642373 L8.82288557,14.8771429 L8.79800995,14.9496126 C8.58109453,15.5859564 8.37810945,16.2272639 8.19104478,16.866586 C8.84079602,16.7841889 9.02985075,16.7941162 9.5721393,16.7365375 C9.76318408,16.1101211 9.97014925,15.4827119 10.1900498,14.8622518 L10.2606965,14.6637046 L10.0497512,14.6924939 C9.65174129,14.7441162 9.26666667,14.8016949 8.89850746,14.8642373 Z"/>
    <path fill="#56555C" d="M19.8905473,39.1386199 C14.1545278,39.1388292 9.00179635,35.6393936 6.89850746,30.3151816 C6.19352581,28.5104399 5.86870033,26.5801633 5.94427861,24.6446731 L5.94427861,24.5573123 L6.0318408,24.5573123 C6.48756219,24.547385 6.79900498,24.5334867 7.12636816,24.5166102 L7.22587065,24.5116465 L7.22587065,24.6109201 C7.14189529,26.3792295 7.43000186,28.1454875 8.07164179,29.7959806 C9.64017165,33.8226683 13.1601125,36.7721482 17.40638,37.6178798 C21.6526474,38.4636114 26.0378743,37.0886085 29.0358209,33.9714286 C30.1949931,32.7725408 31.102911,31.3550729 31.7064677,29.801937 C32.3484165,28.1511816 32.6365313,26.3845346 32.5522388,24.6158838 L32.5522388,24.5166102 L32.6517413,24.5215738 C33.1044776,24.5444068 33.4169154,24.5543341 33.7462687,24.562276 L33.8338308,24.562276 L33.8338308,24.6496368 C33.9086656,26.5834643 33.5838538,28.5119701 32.879602,30.3151816 C30.7801283,35.6411048 25.6267642,39.1417745 19.8905473,39.1386199 L19.8905473,39.1386199 Z"/>
    <path fill="#252526" d="M7.26368159 26.2360291C7.21844842 25.6809675 7.20715055 25.1236721 7.22985075 24.5672397L7.22985075 24.4679661 7.13034826 24.4729298C6.80298507 24.4898063 6.49154229 24.5027119 6.0358209 24.513632L5.94825871 24.513632 5.94825871 24.6009927C5.92915583 25.1595058 5.9417797 25.7186501 5.98606965 26.2757385L6.0278607 26.2757385C6.44875622 26.2687893 6.85970149 26.2568765 7.24975124 26.2380145L7.26368159 26.2360291zM33.8308458 24.5573123L33.7432836 24.5573123C33.4139303 24.5493705 33.1014925 24.5404358 32.6487562 24.5166102L32.5492537 24.5116465 32.5492537 24.6109201C32.5719838 25.1620259 32.5613509 25.7139982 32.5174129 26.2638257L33.7950249 26.3184262C33.8393092 25.7616691 33.8519331 25.2028555 33.8328358 24.6446731L33.8308458 24.5573123z"/>
    <path fill="#252526" d="M34.5522388,24.8849153 C31.8827829,24.8939822 29.2237594,24.5521885 26.6437811,23.8683535 C25.5329822,23.5754674 24.4509732,23.1830657 23.4109453,22.6959322 L23.3850746,22.6770702 C21.2109453,21.6376755 21.1253731,19.5509443 21.3273632,17.6508475 C21.3781095,17.1713559 21.2029851,16.5350121 20.6945274,16.1984746 C20.2108212,15.8762217 19.5802235,15.8762217 19.0965174,16.1984746 C18.5890547,16.5350121 18.4129353,17.1683777 18.4636816,17.6468765 C18.6626866,19.5489588 18.5800995,21.6346973 16.4059701,22.674092 L16.3800995,22.6860048 C15.3406124,23.1777912 14.2585703,23.5745245 13.1472637,23.8713317 C10.5672831,24.5551553 7.90826113,24.8969489 5.23880597,24.8878935 L5.22686567,24.8878935 C4.1163679,24.8752217 3.15431728,24.116489 2.88557214,23.0414044 C2.47661692,21.4530266 1.92537313,19.0565617 1.86169154,16.8149637 C1.83311822,15.9168412 2.35175538,15.0906567 3.17412935,14.7242615 C6.17711443,13.3900242 12.2537313,12.8946489 14.8457711,12.9313801 C15.799005,12.9452785 16.6308458,13.2877724 17.2537313,13.9241162 C18.0827165,13.5359567 18.9848693,13.3278561 19.9004975,13.3135835 C20.8138899,13.327763 21.7139109,13.5348262 22.5412935,13.921138 C22.9820896,13.4714286 23.7522388,12.943293 24.9492537,12.9284019 C26.5044776,12.9065617 33.1960199,13.1944552 36.6208955,14.7153269 C37.443258,15.0785379 37.9624644,15.9032728 37.9333333,16.8000726 C37.8686567,19.0466344 37.318408,21.4520339 36.9094527,23.0443826 C36.640035,24.1183259 35.6787026,24.8759989 34.5691542,24.8888862 L34.5522388,24.8849153 Z M25.2676617,14.8910412 C24.0089552,14.9099031 23.7502488,15.9701453 23.7104478,16.1815981 C23.5453264,17.06536 23.4359902,17.9585945 23.3830846,18.8560291 C23.3711443,19.8805327 23.7393035,20.5833898 24.4776119,20.9407748 C27.2238806,22.1628329 30.4159204,22.7664165 34.2348259,22.7852785 C34.5306315,22.7873258 34.7902488,22.5891795 34.8656716,22.3038015 C35.2288557,20.8881598 35.718408,18.7835593 35.7741294,16.8497094 C35.7799456,16.6648394 35.6729344,16.4948789 35.5034826,16.4198547 C32.8835821,15.2583535 27.3014925,14.8592736 25.2676617,14.8910412 Z M4.28855721,16.4238257 C4.11910539,16.4988498 4.01209417,16.6688104 4.01791045,16.8536804 C4.07363184,18.7835593 4.56318408,20.891138 4.92636816,22.3077724 C5.00089456,22.5924824 5.25929457,22.7906373 5.55422886,22.7892494 C9.3761194,22.7703874 12.5701493,22.1658111 15.318408,20.9427603 C16.0537313,20.5853753 16.4208955,19.8815254 16.4129353,18.8530508 C16.3599861,17.9568842 16.2503148,17.0649527 16.0845771,16.1825908 C16.0457711,15.9701453 15.7860697,14.9099031 14.5273632,14.8920339 C13.3333333,14.8721792 7.23880597,15.1124213 4.28855721,16.4238257 Z"/>
  </g>
</svg>
