<svg xmlns="http://www.w3.org/2000/svg" width="24" height="16" viewBox="0 0 24 16">
  <path
    d="M19.5,0 C20.8807119,0 22,1.11928813 22,2.5 L22,2.5 L22,7 L24,7 L24,9 L22,9 L22,13.5 C22,14.8807119 20.8807119,16 19.5,16 C18.1192881,16 17,14.8807119 17,13.5 L17,13.5 L17,2.5 C17,1.11928813 18.1192881,0 19.5,0 Z M4.5,0 C5.16304122,0 5.79892601,0.263392101 6.26776695,0.732233047 C6.7366079,1.20107399 7,1.83695878 7,2.5 L7,2.5 L7,13.5 C7,14.8807119 5.88071187,16 4.5,16 C3.11928813,16 2,14.8807119 2,13.5 L2,13.5 L2,9 L-4.4408921e-16,9 L-4.4408921e-16,7 L2,7 L2,2.5 C2,1.11928813 3.11928813,0 4.5,0 Z M16,7 L16,9 L8,9 L8,7 L16,7 Z"
  />
</svg>
