<svg xmlns="http://www.w3.org/2000/svg" width="23" height="22" viewBox="0 0 23 22">
  <path
    d="M6,0.586 L11.707,6.293 C12.0973819,6.68349985 12.0973819,7.31650015 11.707,7.707 L11.707,7.707 L10.414,9 L12,10.586 L21.293,1.289 C21.5538132,1.02861004 21.9367094,0.932782341 22.2894296,1.03962289 C22.6421498,1.14646345 22.907514,1.43865222 22.98,1.8 C23.026,2.029 23.329,6.672 19,11 C14.745,15.252 12,15.312 10.262,15.152 L10.262,15.152 L3.707,21.707 L2.293,20.293 L10.586,12 L9,10.414 L7.707,11.707 C7.31650015,12.0973819 6.68349985,12.0973819 6.293,11.707 L6.293,11.707 L0.586,6 L2,4.586 L7,9.586 L7.586,9 L2.586,4 L4,2.586 L9,7.586 L9.586,7 L4.586,2 L6,0.586 Z M16.8,15.39 L21.414,20 L20,21.414 L14.952,16.366 C15.5935047,16.091438 16.2115527,15.7650231 16.8,15.39 L16.8,15.39 Z"
  />
</svg>
