<svg xmlns="http://www.w3.org/2000/svg" width="24" height="24" viewBox="0 0 24 24">
  <path fill-rule="evenodd" d="M3.5,4.61225 L0.662375,1.7755 L1.9005,0.537375 L4.73725,3.375 L18.074,3.375 C18.3505474,3.3749808 18.6108265,3.50569763 18.7759541,3.72753395 C18.9410816,3.94937027 18.9916191,4.23621178 18.91225,4.501125 L16.81225,11.501125 C16.701311,11.8714104 16.3605472,12.1250268 15.974,12.125 L5.25,12.125 L5.25,13.875 L14.875,13.875 L14.875,15.625 L4.375,15.625 C3.89175084,15.625 3.5,15.2332492 3.5,14.75 L3.5,4.61225 Z M4.8125,19.125 C4.08762627,19.125 3.5,18.5373737 3.5,17.8125 C3.5,17.0876263 4.08762627,16.5 4.8125,16.5 C5.53737373,16.5 6.125,17.0876263 6.125,17.8125 C6.125,18.5373737 5.53737373,19.125 4.8125,19.125 Z M15.3125,19.125 C14.5876263,19.125 14,18.5373737 14,17.8125 C14,17.0876263 14.5876263,16.5 15.3125,16.5 C16.0373737,16.5 16.625,17.0876263 16.625,17.8125 C16.625,18.5373737 16.0373737,19.125 15.3125,19.125 Z" transform="translate(2 2)"/>
</svg>
