<svg xmlns="http://www.w3.org/2000/svg" width="24" height="24" viewBox="0 0 24 24">
  <g fill-rule="evenodd" transform="translate(1 1)">
    <circle cx="17.417" cy="14.667" r="2.75"/>
    <path d="M22,22 L12.8333333,22 L12.8333333,21.0063333 C12.8333333,20.4068333 13.1220833,19.84675 13.6134167,19.5039167 C14.3641667,18.9795833 15.6484167,18.3333333 17.4166667,18.3333333 C19.1849167,18.3333333 20.4691667,18.9795833 21.2199167,19.5039167 C21.71125,19.8476667 22,20.40775 22,21.0063333 L22,22 Z"/>
    <circle cx="4.583" cy="14.667" r="2.75"/>
    <path d="M9.16666667,22 L0,22 L0,21.0063333 C0,20.4068333 0.28875,19.84675 0.780083333,19.5039167 C1.53083333,18.9795833 2.81508333,18.3333333 4.58333333,18.3333333 C6.35158333,18.3333333 7.63583333,18.9795833 8.38658333,19.5039167 C8.87791667,19.8476667 9.16666667,20.40775 9.16666667,21.0063333 L9.16666667,22 Z"/>
    <circle cx="11" cy="2.75" r="2.75"/>
    <path d="M15.5833333,10.0833333 L6.41666667,10.0833333 L6.41666667,9.08966667 C6.41666667,8.49016667 6.70541667,7.93008333 7.19675,7.58725 C7.9475,7.06291667 9.23175,6.41666667 11,6.41666667 C12.76825,6.41666667 14.0525,7.06291667 14.80325,7.58725 C15.2945833,7.931 15.5833333,8.49108333 15.5833333,9.08966667 L15.5833333,10.0833333 Z"/>
  </g>
</svg>
