<svg xmlns="http://www.w3.org/2000/svg" viewBox="0 0 69.28 128.78"><defs><style>.cls-1{fill:#f0536d;}.cls-2{fill:#ce2f4a;}.cls-3{fill:#050609;}</style></defs><title>Asset 7</title><g id="Layer_2" data-name="Layer 2"><g id="Layer_1-2" data-name="Layer 1"><path class="cls-1" d="M37.94,115.78a9.6,9.6,0,0,1-1.42,0c-1.84-.3-3.19.6-4.41,1.77A17.23,17.23,0,0,0,28.34,122c-.09.18-.33.29-.5.44-.71,0-1.6.18-2.09-.17a9.16,9.16,0,0,0-4-1.29.89.89,0,0,1-.44-.15c-1-1-2.28-1-3.45-1.45s-1.89-.34-1.89.1c0,.75.64,1.06,1.14,1.42a10.11,10.11,0,0,0,1.28.62c.55.31,1.07.66,1.62,1a20.23,20.23,0,0,1,5,4,1.59,1.59,0,0,0,1.42.72c.06.88-.39,1.46-1.23,1.42-2.53-.1-5.09.43-7.59-.31a.77.77,0,0,0-.47,0c-2.26.78-4.59.15-6.87.38-1.15.12-2.12-.62-3.27-.49a22.18,22.18,0,0,1-3.36,0c-.29,0-.59-.29-.88-.29-1.63,0-1.71-1.38-2.13-2.43a.59.59,0,0,1,.08-.44,12.11,12.11,0,0,1,5.28-5,28.28,28.28,0,0,1,4.48-1.47.74.74,0,0,0,.61-.86,10.94,10.94,0,0,0-.18-1.4c0-.23-.26-.45-.24-.66.15-1.92-.74-3.74-.54-5.67a4.19,4.19,0,0,0-.27-2.11,4.63,4.63,0,0,1-.18-1.64c0-2.23,0-4.47,0-6.71a6.79,6.79,0,0,0-.07-1.19,1.13,1.13,0,0,0-1.5-.79c-.85.43-1.74.75-2.62,1.1a7.92,7.92,0,0,1-3.31.24A2.81,2.81,0,0,1,.05,96.62c.08-1.57-.33-3.16.35-4.73a12.48,12.48,0,0,0,.29-2.34,63,63,0,0,1,2.38-8.12A83.18,83.18,0,0,1,7.74,71.05c1.47-1.32,1.69-3.35,2.79-4.89a46.91,46.91,0,0,0,3-4.53c1.92-3.45,4.36-6.59,6.13-10.13a1.08,1.08,0,0,1,.94-.6c.1.29.12.73.33.85a10.46,10.46,0,0,0,2.8,1.19c1.6.34,3.2.72,4.8,1.08a10.61,10.61,0,0,0,5.57-.22c1.81-.53,3.67-.95,5.12-2.3a1.53,1.53,0,0,1,.84-.4c1.06-.09,1.65-.84,2.36-1.48.93-.84,1.6-2,2.82-2.52a1.11,1.11,0,0,1,1.25.88,4,4,0,0,0,.89,1.64C49,52,50.93,54.09,52.11,56.71a1.91,1.91,0,0,0,.31.64c1.71,1.43,2.29,3.56,3.39,5.36s2.38,3.56,3.36,5.45c1.29,2.52,2.66,5,3.82,7.59.9,2,1.64,4.08,2.62,6a10.12,10.12,0,0,1,1.15,3.34,1.42,1.42,0,0,0,0,.47c1.31,2.48,1.47,5.29,2.18,7.94a9.8,9.8,0,0,1-.76,6.72c-.57,1.2-1.46,1.49-2.49.75a11.4,11.4,0,0,1-2.44-1.89,4.43,4.43,0,0,0-1.89-1.41c-.58-.22-.89-.06-.89.62,0,2.48,0,5,0,7.44a6.35,6.35,0,0,1-.32,2.58,6.2,6.2,0,0,0-.16,2.13c0,.64.23,1.45-.07,1.89-1,1.4-.67,3.07-1.23,4.54a2.71,2.71,0,0,0-.13.7,1.21,1.21,0,0,0,.94,1.45A13,13,0,0,1,63.83,121a23.62,23.62,0,0,1,3,2.76,3.1,3.1,0,0,1,.22,2.94,1.18,1.18,0,0,1-1,.58c-2,0-3.91.47-5.9.58-2.2.11-4.41.46-6.63.42-1.52.72-3.13.35-4.71.45a6,6,0,0,1-4.08-1.65,1.11,1.11,0,0,1-.41-1.28,3.54,3.54,0,0,0,3.24-1.13A17.29,17.29,0,0,1,49,123.41a20.8,20.8,0,0,1,4.75-3.08.83.83,0,0,0,.33-.34.78.78,0,0,0,.14-.43,1.77,1.77,0,0,0-1.34-1.4c-1.15-.21-2.14.56-3.26.48a3.73,3.73,0,0,0-1.35.38,8.42,8.42,0,0,1-3.72.59c-.45-.07-.74-.21-.8-.69a1.07,1.07,0,0,0-.47-.75,38.8,38.8,0,0,1-3.9-3.11C38.79,114.49,38.21,114.82,37.94,115.78Z"/><path class="cls-1" d="M24.56,42.34a3,3,0,0,0-1.07-2.75,3.2,3.2,0,0,1-1-1.32,2,2,0,0,0-1.18-1.08,2.32,2.32,0,0,0,.34,2.3,3.34,3.34,0,0,0,.74.93c.84.71.69,1.42.25,2.32a23,23,0,0,0-1.58,3.45,3.73,3.73,0,0,1-2.41,2.16,1.28,1.28,0,0,1-.67.06A3.6,3.6,0,0,1,16.87,48c-2.71-1.61-5.71-2.76-7.89-5.18-1-1.11-1-1.69-.11-2.87A19.8,19.8,0,0,0,13,31.38a22.33,22.33,0,0,0,.5-4c0-1.33.62-2.6.54-4,.7-.9.09-2.07.56-3s.22-2,.31-3.06c0-.32-.09-.7.05-.95.92-1.67,1-3.68,2.08-5.26A30.73,30.73,0,0,1,19.4,7.89a22.58,22.58,0,0,1,4.81-3.83c1.35-.82,2.52-2,4-2.47C30.54.82,32.77-.29,35.33.07a2.58,2.58,0,0,1,1.51.57,16.67,16.67,0,0,0,2.08,1.57,4.45,4.45,0,0,0,1.73.73,9.82,9.82,0,0,1,3.88,1.7,7.33,7.33,0,0,1,2.22,2.43,25.16,25.16,0,0,1,2.63,6.78,2.13,2.13,0,0,1,.08.71c-.13,2.58.83,5,1.46,7.38.52,2,1.1,4.08,1.49,6.17A20.59,20.59,0,0,0,54,32.56c1.11,2.53.53,1.81,2.88,3.57a2.74,2.74,0,0,1,.87,1.09c.56,1.13.59,1.27-.19,2.1a12.05,12.05,0,0,1-2.2,1.81,10.56,10.56,0,0,0-3,2.37,6.74,6.74,0,0,1-3.65,2.08,1.74,1.74,0,0,1-2.08-1.08,2.35,2.35,0,0,0-.57-1c-1.35-1.13-1-2.56-.71-4A8.24,8.24,0,0,1,45.88,38c.19-.46.41-1-.11-1.25s-.9.31-1.12.68c-.65,1.08-1.24,2.2-1.79,3.34-.19.41.35.68.41,1.07-.73-.06-1.16.43-1.61.89-2.09,2.14-4.85,2.78-7.61,3.42a1,1,0,0,1-.48,0c-2-.59-4.06-1.17-5.57-2.9C26.66,41.67,26.57,41.75,24.56,42.34ZM31,25.1c-.33-1.24-.33-2.57-1.54-3.41a2.3,2.3,0,0,0-2.85.14,5.74,5.74,0,0,0-.28,7.45,1,1,0,0,0,.37.28,2.87,2.87,0,0,0,4-1.9C31,26.83,30.71,25.91,31,25.1Zm5.46.39c0,.56,0,1,.08,1.35a2.49,2.49,0,0,0,1.76,2.33A2.64,2.64,0,0,0,41,28.46c.94-.82,1-1.94,1.22-3,.38-1.82-.65-3-2-4a1.78,1.78,0,0,0-2,.1C37.27,22.79,36.24,24,36.5,25.49Z"/><path class="cls-2" d="M24.56,42.34c2-.59,2.1-.67,3.44.86,1.51,1.73,3.53,2.31,5.57,2.9a1,1,0,0,0,.48,0c2.76-.64,5.52-1.28,7.61-3.42.45-.46.88-1,1.61-.89a7.9,7.9,0,0,1,.47,1.28,6.11,6.11,0,0,0,1.36,3.34c.14.14.11.44.16.67-1.22.54-1.89,1.68-2.82,2.52-.71.64-1.3,1.39-2.36,1.48a1.53,1.53,0,0,0-.84.4c-1.45,1.35-3.31,1.77-5.12,2.3a10.61,10.61,0,0,1-5.57.22c-1.6-.36-3.2-.74-4.8-1.08A10.46,10.46,0,0,1,21,51.75c-.21-.12-.23-.56-.33-.85a10.44,10.44,0,0,1,1.35-3,19.47,19.47,0,0,0,2.36-5.19A1.86,1.86,0,0,1,24.56,42.34Z"/><path class="cls-2" d="M37.94,115.78c.27-1,.85-1.29,1.41-.72a38.8,38.8,0,0,0,3.9,3.11,1.07,1.07,0,0,1,.47.75c.06.48.35.62.8.69a8.42,8.42,0,0,0,3.72-.59,3.73,3.73,0,0,1,1.35-.38c1.12.08,2.11-.69,3.26-.48a1.77,1.77,0,0,1,1.34,1.4.78.78,0,0,1-.14.43.83.83,0,0,1-.33.34A20.8,20.8,0,0,0,49,123.41a17.29,17.29,0,0,0-1.43,1.25,3.54,3.54,0,0,1-3.24,1.13,48.51,48.51,0,0,0-4.62-8.46C39.24,116.62,38.4,116.43,37.94,115.78Z"/><path class="cls-2" d="M26.42,127.27a1.59,1.59,0,0,1-1.42-.72,20.23,20.23,0,0,0-5-4c-.55-.32-1.07-.67-1.62-1a10.11,10.11,0,0,1-1.28-.62c-.5-.36-1.12-.67-1.14-1.42,0-.44.76-.51,1.89-.1s2.49.5,3.45,1.45a.89.89,0,0,0,.44.15,9.16,9.16,0,0,1,4,1.29c.49.35,1.38.13,2.09.17-.14,1.23-.92,2.25-1.18,3.44C26.56,126.37,26.5,126.82,26.42,127.27Z"/><path class="cls-3" d="M31,25.1c-.33.81-.09,1.73-.31,2.56a2.87,2.87,0,0,1-4,1.9,1,1,0,0,1-.37-.28,5.74,5.74,0,0,1,.28-7.45,2.3,2.3,0,0,1,2.85-.14C30.71,22.53,30.71,23.86,31,25.1Z"/><path class="cls-3" d="M36.5,25.49c-.26-1.53.77-2.7,1.67-3.9a1.78,1.78,0,0,1,2-.1c1.36,1,2.39,2.15,2,4-.22,1.06-.28,2.18-1.22,3a2.64,2.64,0,0,1-2.63.71,2.49,2.49,0,0,1-1.76-2.33C36.55,26.45,36.53,26.05,36.5,25.49Z"/></g></g></svg>