<svg xmlns="http://www.w3.org/2000/svg" viewBox="0 0 72 130.08"><defs><style>.cls-1{fill:#50596e;}.cls-2{fill:#262f45;}.cls-3{fill:#050609;}</style></defs><title>Asset 2</title><g id="Layer_2" data-name="Layer 2"><g id="Layer_1-2" data-name="Layer 1"><path class="cls-1" d="M48.9,42.2a15.84,15.84,0,0,0,2.75,4.93c1,2.53,2.86,4.54,4,7A59.54,59.54,0,0,0,59.84,61a32.43,32.43,0,0,1,2.95,5.7c1,2.48,2.37,4.81,3.08,7.42,0,.21.3.37.42.57a10.05,10.05,0,0,1,1.44,3.47,12.68,12.68,0,0,0,1.11,3.35,29.84,29.84,0,0,1,1.72,6.35c.37,1.76.76,3.52,1.21,5.27.13.47.34,1,.15,1.38a8.42,8.42,0,0,0-.38,4.24c.07,1.37-.81,2.19-1.45,3.14a1.47,1.47,0,0,1-2,.05A12.43,12.43,0,0,1,65.7,100a8.53,8.53,0,0,0-.85-.85c-.4-.38-.74-.87-1.4-.78-.45.07-1,.86-1,1.71a4.93,4.93,0,0,0,.07,2.14c.9,2.16.27,4.24-.2,6.3a10.7,10.7,0,0,0-.37,2.56,6.24,6.24,0,0,1-.45,2.79c-.84,1.72-.83,3.66-1.38,5.46a.78.78,0,0,0,.58.93,26.34,26.34,0,0,1,4.52,2.54,8.3,8.3,0,0,1,3,3c1,1.77.24,3.19-1.77,3.27-.8,0-1.6,0-2.4,0a4,4,0,0,0-2.33.34.82.82,0,0,1-.46.1c-2.08-.18-4.09.42-6.14.48s-4,0-6,0a5.47,5.47,0,0,1-3-1.3,2.15,2.15,0,0,1-.87-2.1A3.55,3.55,0,0,0,48,125.56c1.35-1.09,2.77-2.1,4.19-3.1a6.51,6.51,0,0,1,1.3-.55c.44-.17.89-.33,1.32-.53.2-.1.42-.29.31-.56a1,1,0,0,0-.41-.55,2.26,2.26,0,0,0-.88-.27,16.88,16.88,0,0,0-6.32.76,2.67,2.67,0,0,1-3.18-.86,8.3,8.3,0,0,0-1.21-1.16c-.44-.34-.72-.06-.92.34-.91,0-1.38-.73-1.86-1.31a3.16,3.16,0,0,0-2.92-1.17c-.94.08-1.89,0-2.84,0-.21-.79-.52-1.08-1-.89a4.91,4.91,0,0,0-2.3,1.6c-1,1.4-2.52,2.36-3.68,3.64a1.1,1.1,0,0,1-1.68.17c-1.05-.68-2.06-1.45-3.17-2a7.93,7.93,0,0,0-4.53-1c-.76.09-2.22,1.16-2.24,1.87,0,.9.9,1,1.48,1.33a2.56,2.56,0,0,0,1.27.58c.93,0,1.27,1,2.09,1s1.29.85,1.9,1.33a4.63,4.63,0,0,0,.75.57,3.77,3.77,0,0,1,2.16,2.64c0,.08.26.18.39.16a.51.51,0,0,0,.34-.26c.07-.59.19-1.11.94-1.1.27.77-.3,1.38-.48,2a1.86,1.86,0,0,1-2,1.37c-1.89-.17-3.81.32-5.67-.43a4.87,4.87,0,0,0-1.67-.06c-2.63,0-5.27,0-7.91,0a8,8,0,0,1-3.28-.38,6.56,6.56,0,0,0-2.14-.1,2.86,2.86,0,0,1-2.93-2c-.08-.23-.24-.49-.18-.68.5-1.6.54-3.52,2.67-4.07a1.93,1.93,0,0,0,.65-.26c.51-.36.82-1,1.5-1.13,1.58-.23,2.88-1.31,4.47-1.48.63-.07.77-.46.74-1a7.61,7.61,0,0,0-.12-1.18c-.05-.23-.31-.45-.28-.65.2-1.85-.55-3.6-.54-5.42,0-2.4-.13-4.8,0-7.19S9.66,99.19,9.57,97a.51.51,0,0,0-.72-.36,25,25,0,0,1-4.67,1.61A3.12,3.12,0,0,1,0,95.11,9,9,0,0,1,.26,93a32.49,32.49,0,0,0,1.15-6.48,6.62,6.62,0,0,1,.59-2,35.61,35.61,0,0,0,1.43-4.72A16.42,16.42,0,0,1,5.4,75a5,5,0,0,0,.41-1.1,48.25,48.25,0,0,1,2.1-4.42c1.59-3.21,3.64-6.12,5.43-9.19a22,22,0,0,1,2.19-3.07c.62-.73,1.2-1.46,1.75-2.24a37.4,37.4,0,0,1,3-3.95,10.58,10.58,0,0,0,2-3,2.83,2.83,0,0,1,.58-1,10.57,10.57,0,0,0,2-3.2c.16-.28.25-.58.61-.65.14.17.41.34.41.52A5.56,5.56,0,0,0,28.06,48c.72.63,1.35,1.35,2.05,2a6.29,6.29,0,0,0,1.12.86c2.2,1.31,4.49,2.33,7.17,1.93a8.71,8.71,0,0,1,1.91,0,2.66,2.66,0,0,0,2.09-.87,25.66,25.66,0,0,0,4.06-5.23,2.61,2.61,0,0,0,.59-1.53c0-1.09.7-1.9,1.19-2.79C48.32,42.24,48.67,42.26,48.9,42.2Z"/><path class="cls-1" d="M26.83,38.39c-.45-.2-.43-.6-.43-1A3.49,3.49,0,0,0,24.26,34c-.08,0-.14-.09-.21-.12A8.37,8.37,0,0,1,20,30a12.22,12.22,0,0,1-1.33-5.94,3.71,3.71,0,0,1,.9-2.16,1.76,1.76,0,0,1,1.63-.81,5.31,5.31,0,0,1,1.88.26c.61.27.85.05.86-.63a6.35,6.35,0,0,0-.08-2.14c-.74-2-.43-4-.3-5.92s1.31-3.53,2.55-5a12.38,12.38,0,0,1,1.36-1.35c.76-.66,1.08-1.33.44-2.28a1.13,1.13,0,0,1,.25-1.32,3.12,3.12,0,0,1,2-1.21,9.15,9.15,0,0,1,4.26.14,1.51,1.51,0,0,0,1.91-.35C38.06-.56,38-.17,40.21.9a8.82,8.82,0,0,1,2,1.7c.64.59,1.16,1.35,2.17,1.32C47.2,5.6,49.47,7.22,50,11c.17,1.33.34,2.65.46,4a21.08,21.08,0,0,1,.45,2.79c-.07,1.91,0,1.9,1.79,1.87a2.31,2.31,0,0,1,2,.61,4.71,4.71,0,0,1,1.5,2.64,8.62,8.62,0,0,1-2.51,7.16,11.66,11.66,0,0,1-2.7,2.33c-1.63.93-1.69,2.73-2,4.34a15.35,15.35,0,0,0-.07,2.15c-1-.08-1.44.62-1.81,1.3a8.42,8.42,0,0,1-2.24,2.4c-1.21-.17-2,.82-3,1.13a7.82,7.82,0,0,1-2.53.43c-.79,0-1.59,0-2.38,0a11.65,11.65,0,0,1-2.84-.09c-.71-.19-1.26-.91-1.91-1.34-1.45-.95-2.93-1.82-3.76-3.47A1.45,1.45,0,0,0,26.83,38.39ZM35,24.93a4.28,4.28,0,0,0-1-3,2.08,2.08,0,0,0-3.43.16,4.5,4.5,0,0,0,1,6.15,1.59,1.59,0,0,0,2.14-.05A3.86,3.86,0,0,0,35,24.93Zm4-1a5.75,5.75,0,0,0,1,3.11c.83.87,2.93,1.24,3.58-.43A5.85,5.85,0,0,0,44,22.22a2.13,2.13,0,0,0-3-1.35C39.47,21.46,39.27,22.8,39.07,23.9Z"/><path class="cls-2" d="M26.83,38.39a1.45,1.45,0,0,1,1.57.86c.83,1.65,2.31,2.52,3.76,3.47.65.43,1.2,1.15,1.91,1.34a11.65,11.65,0,0,0,2.84.09c.79,0,1.59,0,2.38,0a7.82,7.82,0,0,0,2.53-.43c1-.31,1.81-1.3,3-1.13a8.42,8.42,0,0,0,2.24-2.4c.37-.68.84-1.38,1.81-1.3,0,1.1,0,2.2,0,3.3-.23.06-.58,0-.66.18-.49.89-1.22,1.7-1.19,2.79a2.61,2.61,0,0,1-.59,1.53,25.66,25.66,0,0,1-4.06,5.23,2.66,2.66,0,0,1-2.09.87,8.71,8.71,0,0,0-1.91,0c-2.68.4-5-.62-7.17-1.93A6.29,6.29,0,0,1,30.11,50c-.7-.66-1.33-1.38-2.05-2a5.56,5.56,0,0,1-2.16-4.28c0-.18-.27-.35-.41-.52s-.06-.36,0-.46C26.52,41.46,26.45,39.86,26.83,38.39Z"/><path class="cls-2" d="M27.26,126.19c-.75,0-.87.51-.94,1.1a.51.51,0,0,1-.34.26c-.13,0-.37-.08-.39-.16a3.77,3.77,0,0,0-2.16-2.64,4.63,4.63,0,0,1-.75-.57c-.61-.48-1-1.28-1.9-1.33s-1.16-1.06-2.09-1a2.56,2.56,0,0,1-1.27-.58c-.58-.36-1.52-.43-1.48-1.33,0-.71,1.48-1.78,2.24-1.87a7.93,7.93,0,0,1,4.53,1c1.11.58,2.12,1.35,3.17,2a1.1,1.1,0,0,0,1.68-.17c1.16-1.28,2.63-2.24,3.68-3.64a4.91,4.91,0,0,1,2.3-1.6c.48-.19.79.1,1,.89l-1.12.88a13.43,13.43,0,0,0-2.6,2A16.18,16.18,0,0,0,29.21,122C28.5,123.33,27.34,124.51,27.26,126.19Z"/><path class="cls-2" d="M42.16,119.08c.2-.4.48-.68.92-.34a8.3,8.3,0,0,1,1.21,1.16,2.67,2.67,0,0,0,3.18.86,16.88,16.88,0,0,1,6.32-.76,2.26,2.26,0,0,1,.88.27,1,1,0,0,1,.41.55c.11.27-.11.46-.31.56-.43.2-.88.36-1.32.53a6.51,6.51,0,0,0-1.3.55c-1.42,1-2.84,2-4.19,3.1a3.55,3.55,0,0,1-2.77,1.11,2,2,0,0,1-.06-.47c.12-.92-1-1.27-1-2.12a3,3,0,0,0-.7-2A10.65,10.65,0,0,1,42.16,119.08Z"/><path class="cls-3" d="M35,24.93a3.86,3.86,0,0,1-1.28,3.27,1.59,1.59,0,0,1-2.14.05,4.5,4.5,0,0,1-1-6.15A2.08,2.08,0,0,1,34,21.94,4.28,4.28,0,0,1,35,24.93Z"/><path class="cls-3" d="M39.07,23.9c.2-1.1.4-2.44,1.91-3a2.13,2.13,0,0,1,3,1.35,5.85,5.85,0,0,1-.35,4.36c-.65,1.67-2.75,1.3-3.58.43A5.75,5.75,0,0,1,39.07,23.9Z"/></g></g></svg>