<svg xmlns="http://www.w3.org/2000/svg" width="24" height="24" viewBox="0 0 24 24">
  <path fill-rule="evenodd" d="M14.1666667 0C13.4125 0 12.725.26 12.1666667.681666667 12.8958333 1.655 13.3333333 2.85916667 13.3333333 4.16666667L13.3333333 5C13.3333333 5.79416667 13.1725 6.55166667 12.8833333 7.2425 13.2791667 7.4075 13.7116667 7.5 14.1666667 7.5 16.0075 7.5 17.5 6.0075 17.5 4.16666667L17.5 3.33333333C17.5 1.4925 16.0075 0 14.1666667 0zM7.5 9.16666667L7.5 9.16666667C5.19916667 9.16666667 3.33333333 7.30083333 3.33333333 5L3.33333333 4.16666667C3.33333333 1.86583333 5.19916667 0 7.5 0L7.5 0C9.80083333 0 11.6666667 1.86583333 11.6666667 4.16666667L11.6666667 5C11.6666667 7.30083333 9.80083333 9.16666667 7.5 9.16666667zM19.0325 10.3375C17.9625 9.84583333 16.1283333 9.16666667 14.1666667 9.16666667 13.1708333 9.16666667 12.2083333 9.3425 11.3608333 9.57916667 11.6741667 9.64416667 11.9883333 9.71 12.3025 9.79 14.7283333 10.4083333 16.4441667 12.5191667 16.6291667 15L19.1666667 15C19.6266667 15 20 14.6266667 20 14.1666667L20 11.8508333C20 11.1991667 19.625 10.6091667 19.0325 10.3375zM14.1666667 16.6666667L.833333333 16.6666667C.373333333 16.6666667 0 16.2933333 0 15.8333333L0 15.4375C0 13.5416667 1.2725 11.8733333 3.10916667 11.405 4.3375 11.0916667 5.85083333 10.8333333 7.5 10.8333333 9.14916667 10.8333333 10.6625 11.0916667 11.8908333 11.405 13.7275 11.8733333 15 13.5416667 15 15.4375L15 15.8333333C15 16.2933333 14.6266667 16.6666667 14.1666667 16.6666667z" transform="translate(2 4)"/>
</svg>
